<?xml version="1.0" standalone="no"?>
<!DOCTYPE svg PUBLIC "-//W3C//DTD SVG 20010904//EN" "http://www.w3.org/TR/2001/REC-SVG-20010904/DTD/svg10.dtd">
<svg version="1.0" xmlns="http://www.w3.org/2000/svg" width="600.000000pt" height="456.000000pt" viewBox="0 0 600.000000 456.000000" preserveAspectRatio="xMidYMid meet">
<g transform="translate(0.000000,456.000000) scale(0.100000,-0.100000)"fill="#000000" stroke="none">
<path d="M11 4556 c2 -2 182 -101 401 -220 l396 -216 2193 0 2192 0 396 216c218 119 398 218 400 220 2 2 -1343 4 -2989 4 -1646 0 -2991 -2 -2989 -4z"/>
<path d="M5936 4377 c-16 -12 -16 -13 3 -13 11 0 18 3 15 7 -2 4 2 10 8 12 73 8 6 2 6 -5 1 -18 -5 -28 -12z"/>
<path d="M5860 4340 c-8 -5 -10 -10 -5 -10 6 0 17 5 25 10 8 5 11 10 5 10 -50 -17 -5 -25 -10z"/>
<path d="M5756 4291 c-4 -5 3 -7 14 -4 23 6 26 13 6 13 -8 0 -17 -4 -20 -9z"/>
<path d="M290 4266 c0 -3 9 -10 20 -16 11 -6 20 -8 20 -6 0 3 -9 10 -20 16-11 6 -20 8 -20 6z"/>
<path d="M470 4170 c8 -5 20 -10 25 -10 6 0 3 5 -5 10 -8 5 -19 10 -25 10 -50 -3 -5 5 -10z"/>
<path d="M525 4141 c-3 -5 0 -13 6 -17 7 -4 9 -3 5 4 -3 5 0 13 6 15 9 4 10 61 6 -6 1 -14 -3 -18 -8z"/>
<path d="M689 4053 c-13 -16 -12 -17 4 -4 9 7 17 15 17 17 0 8 -8 3 -21 -13z"/>
<path d="M5215 4030 c-3 -6 1 -7 9 -4 18 7 21 14 7 14 -6 0 -13 -4 -16 -10z"/>
<path d="M788 4023 c9 -4 12 -251 12 -1188 l0 -1183 -112 -45 c-62 -25 -174-71 -248 -102 -74 -31 -204 -84 -287 -118 l-153 -61 0 -68 c0 -40 4 -68 10-68 6 0 187 79 403 175 l392 175 843 0 c795 0 842 1 842 18 0 9 -7 144 -17300 l-17 282 -30 0 c-40 0 -94 33 -106 66 -6 14 -10 66 -10 115 0 82 -1 89-20 89 -17 0 -20 6 -18 48 l1 47 4 -42 c3 -35 8 -43 24 -43 17 0 19 -8 19 -950 -133 27 -175 110 -175 28 0 30 3 30 35 0 29 -4 36 -26 41 -33 8 -44 39 -44125 0 65 1 69 23 68 16 -1 18 -2 5 -6 -15 -4 -18 -16 -18 -74 0 -58 4 -73 22-91 18 -18 23 -19 25 -8 2 8 -10 229 -26 490 -16 261 -27 478 -24 483 2 4 2747 603 7 329 0 601 -3 603 -7 4 -7 -11 -300 -27 -526 -5 -67 -3 -78 9 -73 8 321 9 29 12 11 4 15 -8 18 -60 1 -36 0 -66 -4 -66 -5 0 -8 27 -8 60 0 60 0 60-24 48 -14 -6 -27 -16 -30 -23 -2 -7 -8 -91 -12 -187 -6 -155 -5 -177 10 -20119 -28 62 -47 107 -47 26 0 29 3 29 33 0 26 -6 35 -32 47 -18 8 -34 21 -36 29-3 7 5 4 17 -8 11 -11 30 -21 41 -21 17 0 20 -7 20 -45 0 -45 0 -45 -35 -45-45 0 -100 23 -113 46 -8 15 -11 10 -16 -26 -5 -42 -36 -563 -36 -602 0 -1747 -18 843 -18 l843 0 269 -121 c149 -67 299 -133 335 -149 36 -15 95 -42 133-58 l67 -31 0 72 0 72 -143 58 c-78 32 -258 106 -399 164 l-258 106 0 1188 01189 -2212 -1 c-1217 0 -2207 -3 -2200 -6z m3682 -1505 l0 -123 56 60 56 60-52 -63 c-29 -34 -56 -65 -61 -68 -5 -3 -9 49 -9 120 l0 126 -40 0 -39 0 -4-92 -3 -93 -2 98 -2 97 50 0 50 0 0 -122z m-2740 50 l0 -63 52 2 c63 3 53 -3-14 -10 l-48 -5 0 65 0 65 -45 -4 c-25 -2 -45 0 -45 4 0 5 23 8 50 8 l50 0 0-62z m672 -3 c1 -36 0 -65 -4 -65 -5 0 -8 27 -8 61 l0 61 -32 -19 c-28 -16-33 -26 -36 -60 -2 -28 -9 -43 -20 -48 -14 -5 -15 -4 -4 6 6 7 12 30 12 51 033 4 40 38 57 20 11 40 20 44 21 3 0 8 -29 10 -65z m-765 -77 c-2 -24 -4 -7-4 37 0 44 2 63 4 43 2 -21 2 -57 0 -80z m2982 -59 c-70 -76 -71 -79 -56 -1029 -13 22 -30 29 -38 22 -22 98 -125 98 -132 0 -4 -24 -7 -53 -7 l-53 0 -49 64c-27 36 -52 63 -57 60 -4 -3 -8 -32 -8 -65 l0 -59 -50 0 c-41 0 -50 3 -49 180 10 3 12 6 5 2 -7 22 -13 43 -13 l39 0 3 62 c2 34 8 63 14 65 5 2 34 -26 62-62 51 -63 54 -65 98 -65 l45 0 -62 80 c-34 45 -66 83 -71 86 -18 11 -5 36 5096 32 35 62 71 65 81 4 10 11 15 17 12 6 -4 -21 -41 -61 -86z m-3050 68 c19-7 36 -19 39 -27 3 -11 1 -12 -5 -2 -24 33 -138 42 -193 14 -94 -47 -70 -17036 -187 65 -11 86 -23 82 -48 -2 -15 -11 -23 -28 -24 -25 -3 -25 -3 -2 7 4218 22 50 -31 50 -12 0 -40 9 -63 19 -90 41 -81 161 16 200 34 13 108 12 149-2z m2706 -1 c44 -19 95 -96 63 -96 -6 0 -9 3 -5 6 13 13 -23 62 -57 78 -7636 -173 9 -201 -57 -10 -23 -14 -26 -14 -12 -1 71 125 118 214 81z m-2397 -12c44 -30 52 -64 52 -209 l0 -135 -47 2 -48 1 43 4 42 4 0 130 c0 144 -10 177-58 203 -15 9 -22 15 -17 16 6 0 21 -7 33 -16z m84 -86 c-5 -140 3 -185 38-220 16 -15 25 -28 21 -28 -13 0 -49 44 -60 73 -17 44 -14 277 3 277 1 0 0-46 -2 -102z m88 -22 c0 -144 7 -160 71 -154 20 2 35 0 33 -4 -8 -13 -69 -9-90 6 -17 13 -20 31 -24 145 -3 72 -2 131 3 131 4 0 7 -56 7 -124z m113 109c-3 -9 -8 -14 -10 -11 -3 3 -2 9 2 15 9 16 15 13 8 -4z m87 -153 l0 -169 -39-11 c-21 -7 -60 -14 -87 -17 l-49 -4 45 9 c25 5 62 14 83 20 l37 11 0 159 c0157 0 159 -22 163 -20 4 -19 4 5 6 l27 1 0 -168z m1468 126 c-3 -43 -3 -43-45 -46 l-42 -3 -4 -67 -3 -67 -2 73 -2 72 46 0 46 0 -4 40 c-2 22 0 40 5 404 0 7 -19 5 -42z m109 36 c-3 -3 -12 -4 -19 -1 -8 3 -5 6 6 6 11 1 17 -2 13-5z m113 -39 l0 -45 -55 0 -55 0 0 -60 0 -60 -50 0 -50 0 0 65 c0 69 17 11846 129 10 4 7 -4 -10 -25 -22 -26 -26 -40 -26 -95 l0 -64 40 0 39 0 3 58 3 5753 3 54 3 -4 40 c-2 21 0 39 4 39 5 0 8 -20 8 -45z m-2350 -34 c-12 -23 -27-26 -50 -10 -12 8 -9 9 12 5 21 -5 28 -2 33 15 4 11 9 18 12 16 2 -3 0 -15 -7-26z m47 -93 c-2 -24 -4 -7 -4 37 0 44 2 63 4 43 2 -21 2 -57 0 -80z m2740-75 c-2 -37 -3 -9 -3 62 0 72 1 102 3 68 2 -34 2 -93 0 -130z m-2892 168 c-43-6 -61 -35 -28 -44 10 -3 39 -10 65 -17 64 -17 93 -50 93 -107 0 -39 -5 -49-37 -79 -21 -19 -48 -34 -60 -33 -19 1 -17 2 8 10 49 14 79 54 79 104 0 54-22 79 -83 95 -69 17 -92 28 -92 43 0 23 23 37 60 36 l35 -2 -40 -6z m339 -7c9 -8 16 -23 16 -32 0 -12 -4 -9 -13 8 -10 20 -20 25 -52 25 l-40 0 -3 -137-3 -138 -47 2 -47 1 43 4 42 4 0 134 c0 97 3 135 13 138 26 11 76 6 91 -9zm2410 10 c9 -4 21 -16 28 -28 10 -20 10 -20 -11 2 -24 24 -51 28 -82 12 -16-9 -19 -22 -19 -83 0 -44 5 -78 12 -85 20 -20 75 -15 92 9 14 21 17 21 52 721 -9 40 -20 42 -26 1 -5 -11 -26 -28 -46 -39 -44 -96 -62 -149 -47 l-36 1037 -5 c55 -7 113 12 142 47 14 17 26 34 26 38 0 3 -14 12 -32 19 -28 10 -35 9-53 -8 -26 -24 -77 -26 -99 -4 -12 11 -16 35 -16 89 0 65 3 76 22 89 24 17 4620 72 10z m76 -34 c-8 -5 -19 -10 -25 -10 -5 0 -3 5 5 10 8 5 20 10 25 10 6 03 -5 -5 -10z m-253 -97 c-2 -21 -4 -6 -4 32 0 39 2 55 4 38 2 -18 2 -50 0 -70zm-19 -18 c-3 -66 -7 -78 -31 -102 -24 -24 -36 -28 -102 -31 l-75 -4 0 51 0 5155 0 55 0 0 55 0 55 51 0 51 0 -4 -75z m-2201 18 c-3 -10 -5 -4 -5 12 0 17 224 5 18 2 -7 2 -21 0 -30z m-200 -105 c-2 -18 -4 -4 -4 32 0 36 2 50 4 33 2-18 2 -48 0 -65z m-212 41 c23 -6 19 -7 -17 -3 -44 5 -49 3 -60 -21 -14 -30-7 -39 42 -54 l35 -11 -40 6 c-61 9 -65 13 -48 57 16 39 28 43 88 26z m412-51 c-2 -13 -4 -3 -4 22 0 25 2 35 4 23 2 -13 2 -33 0 -45z m2276 -11 l22 -18-22 10 c-26 13 -53 49 -53 71 0 8 7 2 16 -15 8 -16 25 -38 37 -48z m-2046 -23c-3 -3 -12 -4 -19 -1 -8 3 -5 6 6 6 11 1 17 -2 13 -5z m-589 -11 c-10 -2 -26-2 -35 0 -10 3 -2 5 17 5 19 0 27 -2 18 -5z"/>
<path d="M3950 2285 l0 -55 -55 0 -55 0 0 -40 0 -40 54 0 c30 0 66 4 80 10 3513 56 59 56 125 l0 55 -40 0 -40 0 0 -55z"/>
<path d="M25 3950 c-3 -5 -1 -10 4 -10 6 0 11 5 11 10 0 6 -2 10 -4 10 -3 0-8 -4 -11 -10z"/>
<path d="M5968 3943 c6 -2 18 -2 25 0 6 3 1 5 -13 5 -14 0 -19 -2 -12 -5z"/>
<path d="M5380 3309 c0 -5 5 -7 10 -4 6 3 10 8 10 11 0 2 -4 4 -10 4 -5 0 -10-5 -10 -11z"/>
<path d="M2532 3083 c13 -14 18 -66 28 -248 8 -162 8 -231 1 -233 -20 -7 -3-411 18 -436 6 -7 15 -122 21 -257 6 -134 13 -272 16 -306 l6 -63 378 0 378 06 63 c3 34 11 171 16 304 8 176 15 250 25 270 17 32 20 149 5 158 -15 9 -1385 3 85 19 0 21 59 2 66 -9 4 -13 14 -10 28 2 11 9 140 15 286 9 217 14 26827 283 15 16 -8 17 -467 17 -459 0 -482 -1 -468 -17z m180 -675 c-7 -7 -12 -8-12 -2 0 14 12 26 19 19 2 -3 -1 -11 -7 -17z m172 16 c31 -12 15 -19 -35 -15-35 2 -47 6 -38 12 16 10 51 12 73 3z m153 -8 c-4 -13 -57 -14 -57 -1 0 5 1410 30 10 17 0 29 -4 27 -9z m193 2 c0 -9 -18 -13 -55 -13 -83 0 -68 21 18 2423 1 37 -4 37 -11z m70 -83 c-7 -9 -15 -13 -19 -10 -3 3 1 10 9 15 21 14 2412 10 -5z m44 -28 c-1 -9 4 -17 11 -17 11 0 12 -8 1 -42 -9 -32 -18 -44 -34-46 -16 -2 -23 3 -26 20 -3 13 -7 36 -11 52 -4 20 -1 32 12 42 23 18 48 13 47-9z m-206 -624 c-76 -2 -200 -2 -275 0 -76 1 -14 3 137 3 151 0 213 -2 138 -3z"/>
<path d="M570 1294 c-124 -68 -303 -166 -397 -216 l-173 -93 0 -392 0 -393523 0 c287 0 539 3 560 6 l37 7 0 53 c0 47 2 54 20 54 13 0 20 7 20 20 0 17 720 40 20 33 0 40 3 40 20 0 18 7 20 80 20 74 0 80 2 80 20 0 17 6 20 35 18l34 -2 -21 -36 c-42 -69 -60 -90 -70 -84 -7 4 -8 2 -4 -4 4 -7 -7 -32 -23 -56-33 -48 -36 -56 -21 -56 8 0 117 144 177 235 25 37 46 55 37 31 -3 -9 -1 -165 -16 6 0 11 7 11 15 0 12 13 15 60 15 53 0 60 2 60 20 0 19 7 20 95 20 104 0124 9 152 68 7 15 11 18 8 7 -3 -11 -48 -103 -100 -204 -52 -101 -95 -186 -95-188 0 -1 4 -3 9 -3 6 0 40 57 78 128 37 70 73 136 80 147 7 11 17 30 23 43 513 15 20 21 17 6 -4 10 -1 8 6 -5 43 11 52 29 17 l11 -23 0 23 c1 19 6 22 4122 22 0 40 5 40 10 0 6 42 10 105 10 73 0 105 4 105 12 0 6 2 9 5 6 3 -2 -26-98 -64 -211 -38 -114 -65 -207 -61 -207 9 0 8 -2 66 160 24 69 49 133 54 1426 10 10 23 10 29 0 5 10 33 22 61 19 44 23 48 29 29 8 -20 15 -21 149 -21l140 0 1 33 c2 28 3 28 6 6 2 -14 -8 -100 -22 -190 -35 -225 -39 -255 -30-247 6 6 56 254 72 361 3 20 10 37 14 37 5 0 9 9 9 20 0 19 7 20 154 20 l1540 8 -222 8 -223 8 180 c4 99 10 199 13 222 l6 42 145 3 c90 2 149 -1 154 -7 5-6 27 -104 49 -219 23 -116 44 -212 46 -214 9 -10 5 31 -19 177 -37 220 -40251 -26 251 7 0 10 -8 8 -17 -5 -17 6 -18 138 -15 130 3 143 1 148 -15 3 -103 0 0 22 -3 22 -4 38 -1 35 6 -6 80 -195 132 -337 20 -57 42 -103 47 -103 6 07 8 3 18 -28 70 -106 306 -107 326 -1 14 -5 26 -9 26 -4 0 -9 11 -11 25 -5 255 34 17 15 3 -6 15 -10 26 -10 10 0 19 -4 19 -10 0 -5 9 -10 20 -10 11 0 20-4 20 -10 0 -6 42 -10 106 -10 l106 0 -6 32 -6 33 17 -35 c9 -19 16 -38 15-42 -1 -5 3 -8 9 -8 6 0 8 -7 5 -16 -3 -8 -2 -13 3 -10 7 5 52 -72 149 -25416 -29 35 -56 42 -58 15 -5 23 -22 -83 188 -80 160 -88 178 -49 123 7 -10 10-12 7 -5 -5 9 18 12 99 12 99 0 106 -1 106 -20 0 -17 7 -20 49 -20 28 0 53 556 10 9 15 67 -60 60 -77 -2 -8 -1 -11 4 -8 13 7 64 -61 56 -75 -4 -6 -1 -9 5-8 6 2 30 -24 53 -57 24 -33 51 -61 61 -63 18 -4 3 20 -90 149 -19 26 -34 51-34 57 0 5 -7 15 -15 22 -8 7 -15 18 -15 24 0 6 5 3 10 -6 8 -13 20 -15 65-11 51 5 55 4 55 -16 0 -19 5 -21 60 -21 53 0 60 -2 60 -20 0 -13 7 -20 20-20 13 0 20 -7 20 -20 0 -17 7 -20 40 -20 33 0 40 -4 40 -19 0 -26 48 -34 80-14 15 10 20 11 13 2 -18 -18 -16 -49 2 -49 8 0 15 -6 15 -14 0 -8 7 -16 15-19 8 -4 226 -6 485 -7 l470 0 0 392 -1 393 -147 79 c-81 44 -261 142 -400218 l-254 138 -2201 -1 -2202 0 -225 -125z m2140 -329 c0 -8 -4 -15 -10 -15-5 0 -7 7 -4 15 4 8 8 15 10 15 2 0 4 -7 4 -15z m-283 -117 c-3 -7 -5 -2 -512 0 14 2 19 5 13 2 -7 2 -19 0 -25z m2189 -29 c19 -22 19 -22 -3 -8 -13 8-23 17 -23 21 0 12 6 9 26 -13z m-2556 -83 c0 -2 -8 -10 -17 -17 -16 -13 -17-12 -4 4 13 16 21 21 21 13z m650 -52 c0 -8 -5 -12 -10 -9 -6 4 -8 11 -5 16 914 15 11 15 -7z m2054 -40 c3 -8 2 -12 -4 -9 -6 3 -10 10 -10 16 0 14 7 11 14-7z m-653 -67 c-10 -9 -11 -8 -5 6 3 10 9 15 12 12 3 -3 0 -11 -7 -18z m349-61 c0 -3 -4 -8 -10 -11 -5 -3 -10 -1 -10 4 0 6 5 11 10 11 6 0 10 -2 10 -4zm78 -51 c-3 -3 -9 2 -12 12 -6 14 -5 15 5 6 7 -7 10 -15 7 -18z m-3388 -19 c0-2 -8 -10 -17 -17 -16 -13 -17 -12 -4 4 13 16 21 21 21 13z m3745 -36 c3 -5 1-10 -4 -10 -6 0 -11 5 -11 10 0 6 2 10 4 10 3 0 8 -4 11 -10z m32 -22 c-3 -8-6 -5 -6 6 -1 11 2 17 5 13 3 -3 4 -12 1 -19z m-4245 -25 c-6 -2 -9 -10 -6-15 4 -7 2 -8 -5 -4 -13 9 -5 26 12 25 9 0 8 -2 -1 -6z m-28 -31 c3 -5 -1 -9-9 -9 -8 0 -12 4 -9 9 3 4 7 8 9 8 2 0 6 -4 9 -8z m4424 -47 c-3 -3 -9 2 -1212 -6 14 -5 15 5 6 7 -7 10 -15 7 -18z m-4034 -6 c-3 -5 -10 -7 -15 -3 -5 3-7 10 -3 15 3 5 10 7 15 3 5 -3 7 -10 3 -15z m4010 -25 c3 -8 2 -12 -4 -9 -63 -10 10 -10 16 0 14 7 11 14 -7z m-4561 -19 c-3 -9 -8 -14 -10 -11 -3 3 -2 92 15 9 16 15 13 8 -4z"/>
<path d="M4481 454 c0 -11 3 -14 6 -6 3 7 2 16 -1 19 -3 4 -6 -2 -5 -13z"/>
<path d="M2332 100 c0 -40 2 -47 7 -26 9 42 29 44 34 4 l5 -33 -2 35 c-1 24-6 35 -16 35 -8 0 -18 9 -22 20 -3 11 -6 -4 -6 -35z"/>
<path d="M2933 100 c0 -30 1 -47 4 -37 5 18 5 18 25 0 21 -18 21 -18 9 5 -1019 -10 27 1 40 10 13 8 13 -9 -1 -21 -19 -22 -19 -26 15 -2 20 -4 11 -4 -22z"/>
<path d="M3372 117 l-22 -32 25 -3 c15 -2 25 -10 26 -20 0 -15 1 -15 8 1 8 212 87 -8 87 -3 0 -16 -15 -29 -33z m28 -7 c0 -11 -7 -20 -15 -20 -13 0 -14 4-5 20 6 11 13 20 15 20 3 0 5 -9 5 -20z"/>
<path d="M3447 143 c-4 -3 -7 -11 -7 -17 0 -6 5 -5 12 2 16 16 28 15 28 -3 0-8 -5 -15 -12 -15 -6 0 -4 -6 7 -13 10 -8 15 -19 11 -25 -10 -16 -33 -15 -391 -4 9 -6 9 -6 -1 -1 -18 27 -26 43 -13 14 12 15 58 2 79 -8 13 -29 16 -39 5z"/>
<path d="M3530 133 c0 -11 3 -14 8 -7 4 6 14 14 22 17 10 4 8 6 -7 6 -16 1-23 -5 -23 -16z"/>
<path d="M3616 126 c-30 -47 -9 -97 29 -66 21 18 19 41 -5 47 -16 4 -18 8 -919 7 8 10 17 7 20 -3 2 -13 -7 -22 -20z m29 -46 c0 -8 -8 -16 -17 -18 -13 -2-18 3 -18 18 0 15 5 20 18 18 9 -2 17 -10 17 -18z"/>
<path d="M3687 143 c-12 -21 -6 -84 9 -90 26 -10 44 18 35 57 -6 32 -33 52-44 33z m33 -18 c0 -8 -4 -15 -9 -15 -13 0 -22 16 -14 24 11 11 23 6 23 -9zm5 -45 c0 -8 -8 -16 -17 -18 -13 -2 -18 3 -18 18 0 15 5 20 18 18 9 -2 17 -1017 -18z"/>
<path d="M3767 143 c-4 -3 -7 -11 -7 -17 0 -6 5 -5 12 2 16 16 28 15 28 -3 0-8 -5 -15 -12 -15 -6 0 -4 -6 7 -13 10 -8 15 -19 11 -25 -10 -16 -33 -15 -391 -4 9 -6 9 -6 -1 -1 -18 27 -26 43 -13 14 12 15 58 2 79 -8 13 -29 16 -39 5z"/>
<path d="M3862 143 l28 -4 -20 -39 c-28 -56 -24 -64 5 -10 31 58 31 60 -7 59-31 -2 -31 -2 -6 -6z"/>
<path d="M3930 141 c0 -5 -3 -16 -6 -25 -4 -12 0 -16 15 -16 26 0 29 -36 4-43 -15 -4 -15 -5 -2 -6 26 -2 44 26 29 44 -7 8 -19 15 -26 15 -18 0 -6 28 1433 12 3 10 5 -5 6 -13 0 -23 -3 -23 -8z"/>
<path d="M4007 143 c-4 -3 -7 -11 -7 -17 0 -6 5 -5 12 2 17 17 28 15 28 -6 0-11 -9 -27 -20 -37 -28 -26 -25 -35 13 -34 29 1 30 2 7 8 -18 5 -21 9 -12 1520 12 31 49 20 64 -11 13 -31 16 -41 5z"/>
<path d="M1943 85 c10 -35 27 -48 27 -20 0 8 -4 15 -10 15 -5 0 -10 9 -10 200 11 -4 20 -9 20 -5 0 -4 -15 2 -35z"/>
<path d="M1975 110 c-4 -7 -3 -15 2 -19 5 -3 13 -15 17 -26 8 -18 10 -16 2415 l15 35 10 -32 c10 -34 27 -45 27 -18 0 8 -4 15 -10 15 -5 0 -10 9 -10 20 030 -29 24 -37 -7 l-6 -28 -12 29 c-8 20 -15 25 -20 16z"/>
<path d="M2076 111 c-5 -7 -4 -16 1 -20 5 -3 13 -15 17 -26 8 -18 10 -16 2415 l15 35 10 -32 c10 -34 27 -45 27 -18 0 8 -4 15 -10 15 -5 0 -10 9 -10 21 029 -33 21 -40 -11 l-6 -25 -10 30 c-7 21 -13 25 -18 16z"/>
<path d="M2175 110 c-4 -7 -3 -15 2 -19 5 -3 13 -15 17 -26 6 -17 9 -17 15 -517 30 24 63 12 56 -6 -4 -11 -17 -12 -29 -1 -19 -2 -19 -13 7 -9 20 -16 25-21 16z"/>
<path d="M2274 108 c-4 -6 0 -16 9 -23 22 -16 21 -22 0 -28 -16 -4 -16 -5 -1-6 26 -2 33 20 12 36 -16 12 -17 15 -4 23 9 6 10 10 3 10 -6 0 -15 -5 -19 -12z"/>
<path d="M2404 91 c0 -21 7 -36 16 -38 10 -3 11 -2 3 4 -6 4 -13 22 -16 38 -427 -5 27 -3 -4z"/>
<path d="M2443 85 c0 -22 2 -30 4 -17 2 12 2 30 0 40 -3 9 -5 -1 -4 -23z"/>
<path d="M2469 88 c4 -17 13 -34 20 -36 10 -3 11 0 5 9 -13 22 -14 43 -1 51 85 4 8 -9 8 -19 0 -21 -4 -15 -32z"/>
<path d="M2519 88 c4 -17 13 -34 21 -36 12 -4 13 -2 3 9 -7 7 -13 21 -13 30 010 6 20 13 22 6 3 2 6 -9 6 -19 1 -21 -3 -15 -31z"/>
<path d="M2574 106 c-11 -28 0 -51 26 -53 22 -1 22 -1 3 4 -29 6 -30 23 -2 2314 0 19 5 17 17 -4 23 -36 29 -44 9z m36 -6 c0 -5 -7 -10 -15 -10 -8 0 -15 5-15 10 0 6 7 10 15 10 8 0 15 -4 15 -10z"/>
<path d="M2641 81 c1 -28 3 -30 6 -11 3 14 9 30 14 36 5 7 3 11 -6 11 -11 0-15 -11 -14 -36z"/>
<path d="M2694 108 c-4 -6 0 -16 9 -23 22 -16 21 -22 0 -28 -16 -4 -16 -5 -1-6 26 -2 33 20 12 36 -16 12 -17 15 -4 23 9 6 10 10 3 10 -6 0 -15 -5 -19 -12z"/>
<path d="M2749 88 c4 -17 13 -34 21 -36 12 -4 13 -2 3 9 -7 7 -13 21 -13 30 010 6 20 13 22 6 3 2 6 -9 6 -19 1 -21 -3 -15 -31z"/>
<path d="M2807 114 c-13 -13 -7 -55 9 -61 24 -9 51 23 38 45 -12 19 -36 27-47 16z m38 -29 c0 -11 -8 -21 -17 -23 -14 -3 -18 3 -18 23 0 20 4 26 18 23 9-2 17 -12 17 -23z"/>
<path d="M2874 106 c-9 -23 0 -51 16 -52 9 0 10 1 3 3 -20 7 -16 51 5 56 16 416 5 -1 6 -10 0 -20 -5 -23 -13z"/>
<path d="M3034 106 c-9 -23 0 -51 16 -52 9 0 10 1 3 3 -20 7 -16 51 5 56 16 416 5 -1 6 -10 0 -20 -5 -23 -13z"/>
<path d="M3097 114 c-13 -13 -7 -55 9 -61 24 -9 51 23 38 45 -12 19 -36 27-47 16z m38 -29 c0 -11 -8 -21 -17 -23 -14 -3 -18 3 -18 23 0 20 4 26 18 23 9-2 17 -12 17 -23z"/>
<path d="M3163 85 c0 -22 2 -30 4 -17 2 12 2 30 0 40 -3 9 -5 -1 -4 -23z"/>
<path d="M3187 112 c6 -4 13 -21 16 -37 l4 -30 2 33 c1 41 23 39 33 -4 6 -276 -27 5 6 -2 32 -4 35 -36 37 -19 1 -30 -2 -24 -5z"/>
<path d="M3538 103 c26 -5 30 -39 5 -46 -15 -4 -15 -5 -2 -6 9 0 22 6 29 1416 20 -4 46 -34 44 -20 -2 -20 -2 2 -6z"/>
</g>
</svg>
